<svg aria-hidden="true" version="1.1"  xmlns="http://www.w3.org/2000/svg"  >
<defs>
<symbol id="icon-email" width="15" height="12"   viewBox="0 0 15 12"   fill="none">
<path d="M13.494 0.415039H1.90884C1.10874 0.415039 0.467934 1.06309 0.467934 1.86319L0.460693 10.5521C0.460693 11.3522 1.10874 12.0002 1.90884 12.0002H13.494C14.2942 12.0002 14.9422 11.3522 14.9422 10.5521V1.86319C14.9422 1.06309 14.2942 0.415039 13.494 0.415039ZM13.494 3.31134L7.70145 6.93172L1.90884 3.31134V1.86319L7.70145 5.48357L13.494 1.86319V3.31134Z" fill="#FF9700"/>
</symbol>

<symbol id="icon-phone" width="15" height="13"   viewBox="0 0 15 16"    fill="none">
<path d="M13.2415 15.2141C13.9563 14.8832 14.416 14.4939 14.6202 14.0465C14.8346 13.5323 14.9417 13.041 14.942 12.5745C14.942 12.4675 14.9326 12.3894 14.9132 12.3408C14.884 12.2631 14.6967 12.1197 14.3513 11.9105C14.0058 11.7014 13.5754 11.4607 13.0598 11.1882L12.2868 10.7655C12.2381 10.7359 12.1458 10.6729 12.0094 10.5753C11.8733 10.4781 11.7519 10.405 11.6449 10.3564C11.5374 10.3078 11.4355 10.2836 11.3383 10.2836C11.1628 10.2836 10.9344 10.4417 10.6525 10.7576C10.3704 11.0738 10.093 11.3923 9.8207 11.7135C9.54805 12.0345 9.33396 12.1948 9.1788 12.1948C9.11042 12.1948 9.03018 12.1777 8.93762 12.1438C8.84507 12.11 8.76989 12.0783 8.71147 12.0491C8.65321 12.02 8.57031 11.9738 8.46345 11.9108C8.35602 11.8475 8.28779 11.8062 8.25882 11.7866C7.29565 11.2516 6.46649 10.6365 5.77082 9.94076C5.07545 9.24514 4.46007 8.41583 3.92513 7.45281C3.90581 7.42358 3.86437 7.35556 3.80115 7.24844C3.73803 7.14132 3.69173 7.05857 3.66254 7.00026C3.63336 6.942 3.60173 6.86661 3.56769 6.77401C3.5336 6.68161 3.51658 6.60142 3.51658 6.53329C3.51658 6.4068 3.61639 6.24387 3.81566 6.04461C4.01508 5.84519 4.23387 5.65788 4.47223 5.48274C4.7106 5.30759 4.92949 5.11538 5.12896 4.9062C5.32833 4.69722 5.42814 4.51977 5.42814 4.37366C5.42814 4.2764 5.40377 4.17424 5.35521 4.06722C5.30666 3.9601 5.23353 3.83867 5.13632 3.70257C5.03912 3.56627 4.97584 3.47402 4.94666 3.42511C4.91753 3.36695 4.8446 3.22814 4.72787 3.00946C4.61109 2.79041 4.48946 2.56922 4.36302 2.34552C4.23658 2.12188 4.10769 1.89082 3.97634 1.65241C3.84505 1.41404 3.72351 1.21713 3.61159 1.06146C3.49967 0.905783 3.41938 0.818441 3.37067 0.798764C3.32217 0.779344 3.24423 0.769531 3.13737 0.769531C2.6704 0.769531 2.17916 0.87655 1.66359 1.09064C1.21604 1.29496 0.827017 1.75457 0.496251 2.46946C0.165434 3.18445 0 3.81915 0 4.37366C0 4.52918 0.0121127 4.69476 0.0364397 4.86991C0.0608178 5.04505 0.0849401 5.19332 0.109369 5.31475C0.133747 5.43648 0.177393 5.59686 0.240613 5.79633C0.303883 5.9956 0.352589 6.1391 0.386422 6.22665C0.420459 6.3141 0.48143 6.47472 0.568925 6.70803C0.656574 6.94138 0.710083 7.08735 0.729402 7.14576C1.3131 8.74082 2.36616 10.2995 3.88844 11.8222C5.41072 13.3444 6.96979 14.3973 8.5651 14.9813C8.62311 15.0004 8.76917 15.0539 9.00268 15.1417C9.23599 15.2292 9.39636 15.29 9.48416 15.3239C9.5714 15.3579 9.71501 15.4067 9.91459 15.4698C10.1138 15.5331 10.2745 15.5768 10.3961 15.6011C10.5177 15.6255 10.6658 15.6496 10.8409 15.6741C11.0159 15.6984 11.1813 15.7105 11.337 15.7105C11.8916 15.7105 12.5265 15.545 13.2415 15.2141Z" fill="#FF9700"/>
</symbol>

<symbol id="icon-facebook" width="8" height="14"   viewBox="0 0 8 14"   fill="none">
<path d="M6.77152 0.0203558L5.08622 0.0175781C3.19284 0.0175781 1.96926 1.30713 1.96926 3.30305V4.81787H0.274763C0.128339 4.81787 0.00976562 4.93981 0.00976562 5.09022V7.28502C0.00976562 7.43543 0.128474 7.55724 0.274763 7.55724H1.96926V13.0954C1.96926 13.2458 2.08783 13.3676 2.23425 13.3676H4.44509C4.59151 13.3676 4.71009 13.2457 4.71009 13.0954V7.55724H6.69135C6.83777 7.55724 6.95634 7.43543 6.95634 7.28502L6.95715 5.09022C6.95715 5.018 6.92917 4.94883 6.87955 4.89772C6.82993 4.84661 6.76233 4.81787 6.69202 4.81787H4.71009V3.53373C4.71009 2.91653 4.85327 2.6032 5.63595 2.6032L6.77125 2.60279C6.91754 2.60279 7.03611 2.48085 7.03611 2.33057V0.292571C7.03611 0.142436 6.91768 0.0206336 6.77152 0.0203558Z" fill="#FF9700"/>
</symbol>

<symbol id="icon-twitter"  width="17" height="13"    viewBox="0 0 17 13"   fill="none">
<path d="M16.2546 1.77901C15.6926 2.01743 15.0897 2.17913 14.4562 2.25131C15.103 1.88041 15.5982 1.29211 15.8328 0.593262C15.2261 0.93674 14.5563 1.18615 13.8427 1.32135C13.2712 0.737614 12.4583 0.374023 11.5567 0.374023C9.82705 0.374023 8.42459 1.7169 8.42459 3.37221C8.42459 3.60697 8.45225 3.83627 8.50569 4.05553C5.90304 3.93036 3.59518 2.7364 2.05057 0.922121C1.78057 1.36428 1.62696 1.87948 1.62696 2.42944C1.62696 3.46996 2.18032 4.38805 3.0199 4.92518C2.50661 4.90875 2.02385 4.77354 1.60122 4.54881V4.58627C1.60122 6.03877 2.68121 7.25101 4.11324 7.52691C3.85087 7.59451 3.5742 7.63196 3.28798 7.63196C3.08573 7.63196 2.89015 7.61278 2.69838 7.57623C3.09716 8.76838 4.25349 9.63531 5.62353 9.65907C4.55211 10.463 3.20117 10.9408 1.73384 10.9408C1.48102 10.9408 1.232 10.9261 0.986816 10.8996C2.37306 11.752 4.01881 12.2489 5.78763 12.2489C11.5492 12.2489 14.6985 7.67948 14.6985 3.71662L14.688 3.32838C15.3034 2.90812 15.8357 2.38012 16.2546 1.77901Z" fill="#FF9700"/>
</symbol>

<symbol id="icon-instagram"   width="13" height="13"    viewBox="0 0 13 13"   fill="none">
<path fill-rule="evenodd" clip-rule="evenodd" d="M0.824219 5.97519C0.824219 3.72535 0.824219 2.60044 1.39717 1.81184C1.58221 1.55716 1.80618 1.33318 2.06086 1.14814C2.84946 0.575195 3.97438 0.575195 6.22422 0.575195H7.56042C9.81025 0.575195 10.9352 0.575195 11.7238 1.14814C11.9785 1.33318 12.2024 1.55716 12.3875 1.81184C12.9604 2.60044 12.9604 3.72536 12.9604 5.97519V7.31139C12.9604 9.56123 12.9604 10.6861 12.3875 11.4747C12.2024 11.7294 11.9785 11.9534 11.7238 12.1384C10.9352 12.7114 9.81025 12.7114 7.56041 12.7114H6.22422C3.97438 12.7114 2.84946 12.7114 2.06086 12.1384C1.80618 11.9534 1.58221 11.7294 1.39717 11.4747C0.824219 10.6861 0.824219 9.56123 0.824219 7.31139V5.97519ZM6.8923 3.4307C5.11819 3.4307 3.67978 4.8691 3.67978 6.64322C3.67978 8.41733 5.11819 9.85574 6.8923 9.85574C8.66642 9.85574 10.1048 8.41733 10.1048 6.64322C10.1048 4.8691 8.66642 3.4307 6.8923 3.4307ZM6.8923 8.65104C5.78559 8.65104 4.88447 7.74993 4.88447 6.64322C4.88447 5.5357 5.78559 4.63539 6.8923 4.63539C7.99901 4.63539 8.90013 5.5357 8.90013 6.64322C8.90013 7.74993 7.99901 8.65104 6.8923 8.65104ZM10.7738 3.18983C10.7738 3.42625 10.5822 3.6179 10.3458 3.6179C10.1094 3.6179 9.9177 3.42625 9.9177 3.18983C9.9177 2.95341 10.1094 2.76176 10.3458 2.76176C10.5822 2.76176 10.7738 2.95341 10.7738 3.18983Z" fill="#FF9700"/>
</symbol>

<symbol id="icon-vk"   width="15" height="15"   viewBox="0 0 16 10"   fill="none">
<path d="M15.6439 8.27718C15.6014 8.20615 15.339 7.63589 14.0762 6.4638C12.7541 5.23646 12.9317 5.43575 14.5241 3.31356C15.4939 2.0211 15.8816 1.23182 15.7603 0.894399C15.6449 0.572765 14.9315 0.657613 14.9315 0.657613L12.5597 0.671425C12.5597 0.671425 12.3841 0.647747 12.2529 0.725689C12.1256 0.802644 12.0437 0.980233 12.0437 0.980233C12.0437 0.980233 11.6678 1.98065 11.1666 2.83111C10.11 4.62575 9.68673 4.72046 9.51408 4.60898C9.11253 4.3495 9.21316 3.56515 9.21316 3.0087C9.21316 1.26931 9.47659 0.544153 8.69914 0.356697C8.44065 0.294541 8.25122 0.253104 7.59118 0.246197C6.74467 0.237318 6.02741 0.249157 5.62191 0.447465C5.35158 0.579671 5.14341 0.874667 5.27068 0.891439C5.42755 0.912158 5.78273 0.98714 5.97117 1.24366C6.21486 1.57417 6.20598 2.31807 6.20598 2.31807C6.20598 2.31807 6.34608 4.36528 5.87942 4.61983C5.55877 4.79446 5.11973 4.43829 4.17752 2.8094C3.69507 1.97572 3.33002 1.05324 3.33002 1.05324C3.33002 1.05324 3.25997 0.881573 3.13467 0.789818C2.98273 0.678332 2.76963 0.642814 2.76963 0.642814L0.514243 0.656626C0.514243 0.656626 0.175836 0.666493 0.0515239 0.813497C-0.0589762 0.944716 0.0426444 1.21505 0.0426444 1.21505C0.0426444 1.21505 1.80867 5.34597 3.80754 7.4287C5.64164 9.33779 7.72338 9.21249 7.72338 9.21249H8.66658C8.66658 9.21249 8.95171 9.18092 9.09674 9.02405C9.23092 8.88 9.22599 8.60967 9.22599 8.60967C9.22599 8.60967 9.20724 7.34385 9.79526 7.15738C10.3744 6.97388 11.1183 8.38078 11.9066 8.92243C12.5025 9.33187 12.9554 9.24209 12.9554 9.24209L15.0637 9.21249C15.0637 9.21249 16.1668 9.14441 15.6439 8.27718Z" fill="#FF9700"/>
</symbol>

<symbol id="icon-arrow" width="26" height="10" viewBox="0 0 29 13" fill="none" xmlns="http://www.w3.org/2000/svg">
<path d="M27.6485 6.69726L0.900879 6.69726" stroke="white" stroke-width="1.5" stroke-linecap="round" stroke-linejoin="round"/>
<path d="M6.17034 11.9667L0.900879 6.69724L6.17034 1.42778" stroke="white" stroke-width="1.5" stroke-linecap="round" stroke-linejoin="round"/>
</symbol>

<symbol id="icon-arr" width="8" height="20" viewBox="0 0 8 14" fill="none" xmlns="http://www.w3.org/2000/svg">
<path d="M0.994141 12.6883L6.99414 6.68829L0.994141 0.688293" stroke="white" stroke-width="1.5" stroke-linejoin="round"/>

</symbol>
</defs>
</svg>




























